<svg width="25" height="24" viewBox="0 0 25 24" fill="none" xmlns="http://www.w3.org/2000/svg">
<path fill-rule="evenodd" clip-rule="evenodd" d="M21.0103 12C21.0103 16.9706 16.9808 21 12.0103 21C7.03969 21 3.01025 16.9706 3.01025 12C3.01025 7.02944 7.03969 3 12.0103 3C16.9808 3 21.0103 7.02944 21.0103 12ZM12.0103 18C11.458 18 11.0103 17.5523 11.0103 17V13H7.01025C6.45797 13 6.01025 12.5523 6.01025 12C6.01025 11.4477 6.45797 11 7.01025 11H11.0103V7C11.0103 6.44772 11.458 6 12.0103 6C12.5625 6 13.0103 6.44772 13.0103 7V11H17.0103C17.5625 11 18.0103 11.4477 18.0103 12C18.0103 12.5523 17.5625 13 17.0103 13H13.0103V17C13.0103 17.5523 12.5625 18 12.0103 18Z" fill="#222222"/>
</svg>
