<svg width="25" height="24" viewBox="0 0 25 24" fill="none" xmlns="http://www.w3.org/2000/svg">
<path d="M2.01025 12L1.22939 11.3753L0.729629 12L1.22939 12.6247L2.01025 12ZM11.0103 13C11.5625 13 12.0103 12.5523 12.0103 12C12.0103 11.4477 11.5625 11 11.0103 11V13ZM5.22939 6.3753L1.22939 11.3753L2.79112 12.6247L6.79112 7.6247L5.22939 6.3753ZM1.22939 12.6247L5.22939 17.6247L6.79112 16.3753L2.79112 11.3753L1.22939 12.6247ZM2.01025 13H11.0103V11H2.01025V13Z" fill="#33363F"/>
<path d="M10.0103 8.13193V7.38851C10.0103 5.77017 10.0103 4.961 10.4842 4.4015C10.9582 3.84201 11.7563 3.70899 13.3527 3.44293L15.0239 3.1644C18.267 2.62388 19.8885 2.35363 20.9494 3.25232C22.0103 4.15102 22.0103 5.79493 22.0103 9.08276V14.9172C22.0103 18.2051 22.0103 19.849 20.9494 20.7477C19.8885 21.6464 18.267 21.3761 15.0239 20.8356L13.3527 20.5571C11.7563 20.291 10.9582 20.158 10.4842 19.5985C10.0103 19.039 10.0103 18.2298 10.0103 16.6115V16.066" stroke="#33363F" stroke-width="2"/>
</svg>
