<svg width="33" height="32" viewBox="0 0 33 32" fill="none" xmlns="http://www.w3.org/2000/svg">
<path d="M10.5 15.5L12.4822 14.2812C13.0091 13.9239 13.1631 13.1339 12.8081 12.5671C11.7759 10.9197 9.72175 9.5 7.49999 9.5C5.27824 9.5 3.22412 10.9197 2.19193 12.5673C1.83693 13.1341 1.99087 13.9241 2.51775 14.2814L4.5 15.5H10.5Z" fill="#D49073"/>
<path d="M15 13H16C16.7956 13 17.5587 13.3161 18.1213 13.8787C18.6839 14.4413 19 15.2044 19 16H18C17.2044 16 16.4413 15.6839 15.8787 15.1213C15.3161 14.5587 15 13.7956 15 13Z" fill="#ED8424"/>
<path d="M18 16H19C19 16.7956 18.6839 17.5587 18.1213 18.1213C17.5587 18.6839 16.7956 19 16 19H15C15 18.2044 15.3161 17.4413 15.8787 16.8787C16.4413 16.3161 17.2044 16 18 16Z" fill="#ED8424"/>
<path d="M25 17H19.2487C18.9125 16.9846 18.5952 16.8402 18.3627 16.5968C18.1302 16.3534 18.0005 16.0298 18.0005 15.6932C18.0005 15.3567 18.1302 15.0331 18.3627 14.7897C18.5952 14.5463 18.9125 14.4019 19.2487 14.3865L25.053 14.0512C25.4483 14.0375 25.8228 13.8708 26.0976 13.5863C26.3724 13.3018 26.526 12.9217 26.5261 12.5262C26.5261 12.3258 26.4866 12.1273 26.4099 11.9422C26.3332 11.757 26.2208 11.5887 26.0791 11.447C25.9374 11.3053 25.7692 11.1929 25.584 11.1162C25.3989 11.0395 25.2004 11 25 11H20C18.4087 11 16.8826 10.3679 15.7574 9.24264C14.6321 8.11742 14 6.5913 14 5H25C26.5913 5 28.1174 5.63214 29.2426 6.75736C30.3679 7.88258 31 9.4087 31 11C31 14.3137 29 17 25 17Z" fill="#FF8E26"/>
<path d="M27.5013 16.5769C26.7794 16.85 25.9456 17 25 17H22.5C22.5 17 20.9775 15.7575 21.4775 14.2575L25.0531 14.0513C25.2065 14.0461 25.3582 14.0179 25.5031 13.9675C25.5038 13.9675 25.505 13.9669 25.5056 13.9669C25.5413 14.3638 25.795 16.1044 27.5013 16.5769Z" fill="#FF750A"/>
<path d="M27.4994 5.54376C27.475 9.01688 24.5 11 24.5 11H20C18.4087 11 16.8826 10.3679 15.7574 9.24265C14.6321 8.11743 14 6.59131 14 5.00001H25C25.8626 4.99866 26.7153 5.18416 27.4994 5.54376Z" fill="#FF8E26"/>
<path d="M30.9994 10.9587C30.9794 10.9662 29.4875 12.985 26.5256 12.5037C26.52 12.1028 26.3568 11.7203 26.0713 11.4389C25.7858 11.1574 25.4009 10.9997 25 11H24.5C24.5 11 27.475 9.01683 27.4994 5.5437C28.5377 6.01948 29.4187 6.78179 30.0387 7.74102C30.6587 8.70026 30.992 9.81656 30.9994 10.9587Z" fill="#FF750A"/>
<path d="M8 24.5H7C5.67392 24.5 4.40215 23.9732 3.46447 23.0355C2.52678 22.0979 2 20.8261 2 19.5H3C4.32608 19.5 5.59785 20.0268 6.53553 20.9645C7.47322 21.9021 8 23.1739 8 24.5Z" fill="#C3C6C7"/>
<path d="M3 29.5H2C2 28.1739 2.52678 26.9021 3.46447 25.9645C4.40215 25.0268 5.67392 24.5 7 24.5H8C8 25.8261 7.47322 27.0979 6.53553 28.0355C5.59785 28.9732 4.32608 29.5 3 29.5Z" fill="#C3C6C7"/>
<path d="M22.4999 19.5C28.9999 21 30.9999 24.5 30.9999 24.5C30.9999 24.5 28.9999 28 22.4999 29.5C20.6848 29.8282 18.8444 29.9955 16.9999 30C13.9999 30 11.1499 29.0239 8.49989 27.3343C8.02288 27.0309 7.63005 26.6122 7.35773 26.1168C7.08542 25.6214 6.94239 25.0653 6.94189 24.5C6.94239 23.9347 7.08542 23.3786 7.35773 22.8832C7.63005 22.3878 8.02288 21.9691 8.49989 21.6657C11.1499 19.9761 13.9999 19 16.9999 19C18.8444 19.0045 20.6848 19.1718 22.4999 19.5Z" fill="#DADCDE"/>
<path d="M31 24.5C31 24.5 29.4144 27.275 24.4775 28.9419C24.3288 28.5556 23.5 26.3206 23.5 24.5C23.5 22.6794 24.3288 20.4444 24.4775 20.0581C29.4144 21.725 31 24.5 31 24.5Z" fill="#C3C6C7"/>
<path d="M17.8575 24.5C17.8575 25.9 18.5 26.6 18.5 26.6L14.6431 28C14.6431 28 14.1006 26.8194 14.0125 25C14.0044 24.8381 14.0002 24.6715 14 24.5C13.9998 24.3285 14.004 24.1619 14.0125 24C14.1006 22.1806 14.6431 21 14.6431 21L18.5 22.4C18.5 22.4 17.8575 23.1 17.8575 24.5Z" fill="#C3C6C7"/>
<path d="M4.5 15.5H10.5V17C10.5 17.2652 10.3946 17.5196 10.2071 17.7071C10.0196 17.8946 9.76522 18 9.5 18C9 18 8.5 17.5 7.5 17.5C6.5 17.5 6 18 5.5 18C5.23478 18 4.98043 17.8946 4.79289 17.7071C4.60536 17.5196 4.5 17.2652 4.5 17V15.5Z" fill="#B37A60"/>
<path d="M17.5 7.5C17.7761 7.5 18 7.27614 18 7C18 6.72386 17.7761 6.5 17.5 6.5C17.2239 6.5 17 6.72386 17 7C17 7.27614 17.2239 7.5 17.5 7.5Z" fill="black"/>
<path d="M1.5 29.5C1.5 29.6326 1.55268 29.7598 1.64645 29.8536C1.74021 29.9473 1.86739 30 2 30H3C3.94537 29.9999 4.87475 29.7561 5.69853 29.2923C6.5223 28.8285 7.21268 28.1603 7.70306 27.3521C7.86736 27.5014 8.04404 27.6365 8.23119 27.7559C11.0869 29.5767 14.0371 30.5 17 30.5C18.8775 30.497 20.7509 30.3265 22.5981 29.9903L22.6124 29.9872C29.2493 28.4559 31.348 24.8988 31.4341 24.7481C31.4773 24.6725 31.5 24.587 31.5 24.5C31.5 24.413 31.4773 24.3275 31.4341 24.2519C31.348 24.1013 29.2493 20.5444 22.6124 19.0128L22.5981 19.0097C21.2153 18.7564 19.8169 18.5977 18.4126 18.5347C18.7254 18.2377 18.9804 17.8853 19.1647 17.4954C19.1851 17.4971 19.2054 17.4988 19.226 17.4998C19.2336 17.4998 19.2411 17.5002 19.2487 17.5002H25C27.0285 17.5002 28.7118 16.8368 29.8678 15.5815C30.9356 14.4219 31.5 12.8375 31.5 11C31.5 10.9861 31.4996 10.9722 31.4994 10.9583C31.4864 9.24245 30.7961 7.60045 29.5788 6.39104C28.3616 5.18164 26.7159 4.50198 25 4.5H14C13.6023 4.49955 13.221 4.34137 12.9398 4.06017C12.6586 3.77896 12.5004 3.39769 12.5 3V2C12.5 1.86739 12.4473 1.74021 12.3536 1.64645C12.2598 1.55268 12.1326 1.5 12 1.5C11.8674 1.5 11.7402 1.55268 11.6464 1.64645C11.5527 1.74021 11.5 1.86739 11.5 2V3C11.5008 3.57882 11.7021 4.13949 12.0696 4.58663C12.4372 5.03377 12.9483 5.33977 13.516 5.45256C13.5316 5.68019 13.5593 5.90684 13.5988 6.13156C13.2724 6.26959 12.9142 6.31448 12.5638 6.26125C12.3972 6.23612 12.239 6.17177 12.1022 6.07351C11.9654 5.97524 11.8539 5.84587 11.7769 5.69606L11.4713 4.83313C11.4498 4.77072 11.4161 4.71319 11.3723 4.66386C11.3284 4.61453 11.2752 4.57437 11.2158 4.5457C11.1563 4.51703 11.0918 4.50042 11.0258 4.49683C10.9599 4.49323 10.894 4.50272 10.8317 4.52475C10.7695 4.54679 10.7123 4.58092 10.6633 4.62519C10.6143 4.66946 10.5746 4.72299 10.5464 4.78268C10.5183 4.84238 10.5022 4.90706 10.4991 4.973C10.4961 5.03894 10.5061 5.10483 10.5287 5.16687L10.8454 6.06131C10.8523 6.0807 10.8603 6.09966 10.8695 6.11806C11.0144 6.41219 11.2271 6.6677 11.49 6.86356C11.753 7.05942 12.0587 7.19002 12.382 7.24463C12.5346 7.27251 12.6894 7.2864 12.8445 7.28613C13.1875 7.28378 13.5276 7.22275 13.8501 7.10569C14.2905 8.38665 15.1194 9.49837 16.2214 10.286C17.3235 11.0737 18.6437 11.498 19.9982 11.5H20.0004H20.0025H25C25.269 11.5 25.5272 11.6057 25.7191 11.7943C25.9109 11.9829 26.0211 12.2393 26.0257 12.5082C26.0304 12.7772 25.9292 13.0373 25.7441 13.2324C25.5589 13.4275 25.3045 13.5421 25.0356 13.5515C25.0319 13.5515 25.028 13.5515 25.0243 13.5521L19.226 13.887C19.0939 13.8931 18.9629 13.9135 18.8353 13.948C18.51 13.5005 18.0837 13.1361 17.591 12.8845C17.0983 12.6328 16.5532 12.5011 16 12.5H15C14.8674 12.5 14.7402 12.5527 14.6464 12.6464C14.5527 12.7402 14.5 12.8674 14.5 13C14.5003 13.6042 14.657 14.198 14.9548 14.7237C15.2526 15.2494 15.6813 15.6891 16.1994 16C15.7227 16.2865 15.3211 16.6824 15.0278 17.1549C14.7344 17.6274 14.5578 18.1629 14.5125 18.7173C12.3901 19.0884 10.2862 19.9338 8.23125 21.2441C8.0441 21.3635 7.86742 21.4986 7.70312 21.6479C7.21273 20.8397 6.52235 20.1714 5.69856 19.7076C4.87478 19.2438 3.94538 19.0001 3 19H2C1.86739 19 1.74021 19.0527 1.64645 19.1464C1.55268 19.2402 1.5 19.3674 1.5 19.5C1.50101 20.5531 1.80394 21.5838 2.37287 22.47C2.94181 23.3562 3.7529 24.0607 4.71 24.5C3.7529 24.9393 2.94181 25.6438 2.37287 26.53C1.80394 27.4162 1.50101 28.4469 1.5 29.5ZM27.5892 16.0059C26.4185 15.6973 26.11 14.7496 26.029 14.2739C26.4852 14.0063 26.818 13.5701 26.9554 13.0593C27.1156 13.0721 27.2715 13.0785 27.4233 13.0785C28.4882 13.0857 29.5294 12.7645 30.4051 12.1587C30.1378 13.7549 29.2843 15.2579 27.5892 16.0059ZM24.3375 10.5H21.276C21.5809 10.0941 21.8169 9.64075 21.9744 9.15812C21.9951 9.09583 22.0034 9.03005 21.9988 8.96455C21.9941 8.89905 21.9766 8.83511 21.9472 8.77638C21.9179 8.71764 21.8772 8.66527 21.8276 8.62225C21.778 8.57922 21.7204 8.54639 21.6581 8.52563C21.5958 8.50486 21.5301 8.49657 21.4646 8.50122C21.3991 8.50588 21.3351 8.52339 21.2764 8.55276C21.2176 8.58212 21.1653 8.62277 21.1222 8.67238C21.0792 8.72198 21.0464 8.77958 21.0256 8.84188C20.8679 9.34024 20.5996 9.79654 20.2407 10.1767C20.1268 10.2958 20.001 10.403 19.8653 10.4967C18.5175 10.4624 17.2291 9.93467 16.2443 9.01371C15.2596 8.09275 14.6469 6.84253 14.5225 5.5H25C25.6796 5.49937 26.3534 5.62536 26.9869 5.8715C26.8107 8.46206 24.8391 10.1188 24.3375 10.5ZM25.7133 10.63C26.5508 9.80744 27.6829 8.35756 27.9446 6.3565C28.6946 6.8322 29.3184 7.4824 29.7625 8.25156C30.2067 9.02071 30.458 9.88596 30.4951 10.7734C30.0576 11.2421 28.8898 12.2319 26.9707 12.0564C26.8932 11.7342 26.7381 11.4358 26.519 11.1872C26.2998 10.9386 26.0233 10.7473 25.7133 10.63ZM21.9529 14.7312L25.0604 14.5518C25.1823 15.1463 25.5069 15.8814 26.1813 16.4109C25.7905 16.4715 25.3955 16.5013 25 16.5H22.6671C22.3907 16.2738 21.7086 15.6092 21.9529 14.7312ZM19.2775 14.8856L20.9212 14.7907C20.832 15.4519 21.0387 16.0378 21.3375 16.5H19.2614C19.054 16.4881 18.8591 16.3969 18.7172 16.2451C18.5753 16.0934 18.4973 15.8928 18.4994 15.6851C18.5015 15.4774 18.5835 15.2784 18.7284 15.1296C18.8733 14.9807 19.0699 14.8933 19.2775 14.8856ZM24.9326 20.7539C26.7448 21.4414 28.0096 22.2601 28.8243 22.9121C29.6625 23.5831 30.1598 24.1797 30.3963 24.5C30.1594 24.8209 29.6624 25.4173 28.8243 26.088C28.0096 26.7402 26.7447 27.5588 24.9326 28.2462C24.8138 27.9981 24 26.2336 24 24.5C24 22.7736 24.8135 21.0037 24.9326 20.7539ZM15.55 13.5H16C16.3814 13.5008 16.7576 13.5885 17.1001 13.7565C17.4425 13.9244 17.7422 14.1682 17.9763 14.4693C17.7255 14.7419 17.5649 15.0852 17.5163 15.4524C17.0329 15.3563 16.5886 15.1198 16.2389 14.7725C15.8892 14.4253 15.6496 13.9827 15.55 13.5ZM17.6982 16.5187C17.8239 16.7637 18.0038 16.9767 18.2243 17.1416C18.0138 17.5503 17.695 17.8932 17.3027 18.1328C16.9104 18.3724 16.4597 18.4994 16 18.5H15.55C15.6558 17.9865 15.9201 17.5192 16.3055 17.1637C16.6909 16.8083 17.1778 16.5827 17.6982 16.5187ZM8.76875 22.0875C11.4613 20.3705 14.2306 19.5 17 19.5C18.8093 19.5062 20.6146 19.6699 22.3955 19.9891C22.9605 20.1196 23.4886 20.2661 23.983 20.4234C23.7466 20.9363 23 22.6989 23 24.5C23 26.3011 23.7466 28.0638 23.9829 28.5766C23.4886 28.7339 22.9604 28.8804 22.3954 29.011C20.6146 29.3306 18.8093 29.4942 17 29.5C14.2306 29.5 11.4613 28.6295 8.76875 26.9125C8.36226 26.6547 8.02749 26.2983 7.79554 25.8765C7.56359 25.4547 7.44196 24.9812 7.44196 24.4998C7.44196 24.0184 7.56359 23.5449 7.79554 23.1231C8.02749 22.7013 8.36226 22.3453 8.76875 22.0875ZM2.52756 20H3C3.83268 20.0001 4.64901 20.2312 5.35823 20.6675C6.06744 21.1038 6.64176 21.7283 7.01731 22.4714C6.73503 22.9274 6.55153 23.4375 6.47869 23.9688C5.46908 23.8496 4.52939 23.3927 3.81214 22.6723C3.09489 21.9518 2.6422 21.0101 2.52756 20ZM6.47869 25.0312C6.55153 25.5625 6.73503 26.0726 7.01731 26.5286C6.64176 27.2717 6.06744 27.8962 5.35823 28.3325C4.64901 28.7688 3.83268 28.9999 3 29H2.52756C2.6422 27.9899 3.09489 27.0482 3.81214 26.3277C4.52939 25.6073 5.46908 25.1504 6.47869 25.0312Z" fill="black"/>
<path d="M27.5 24.5C27.7761 24.5 28 24.2761 28 24C28 23.7239 27.7761 23.5 27.5 23.5C27.2239 23.5 27 23.7239 27 24C27 24.2761 27.2239 24.5 27.5 24.5Z" fill="black"/>
<path d="M14.6431 28.4999C14.7013 28.4999 14.759 28.4898 14.8137 28.4699L18.6707 27.0699C18.7481 27.0418 18.8174 26.9951 18.8723 26.9338C18.9273 26.8725 18.9663 26.7987 18.9859 26.7187C19.0054 26.6388 19.005 26.5552 18.9845 26.4755C18.964 26.3958 18.9242 26.3223 18.8685 26.2617C18.8633 26.2561 18.3574 25.6723 18.3574 24.4999C18.3574 23.3353 18.8511 22.7578 18.8685 22.7381C18.9242 22.6774 18.964 22.604 18.9845 22.5243C19.005 22.4446 19.0054 22.361 18.9859 22.2811C18.9663 22.2011 18.9273 22.1272 18.8723 22.066C18.8174 22.0047 18.7481 21.958 18.6707 21.9299L14.8137 20.5299C14.6957 20.4871 14.566 20.4902 14.4502 20.5386C14.3344 20.587 14.2411 20.6772 14.1887 20.7913C14.1606 20.8525 13.5 22.3158 13.5 24.4999C13.5 26.6841 14.1604 28.1474 14.1885 28.2086C14.2284 28.2956 14.2925 28.3693 14.3731 28.4209C14.4537 28.4726 14.5474 28.5 14.6431 28.4999ZM14.9383 21.6389L17.7508 22.6598C17.7419 22.6783 17.7331 22.697 17.7243 22.7161C17.4821 23.2795 17.3573 23.8864 17.3573 24.4997C17.3573 25.113 17.4821 25.7199 17.7243 26.2833C17.7331 26.3026 17.7419 26.3213 17.7508 26.3396L14.9383 27.3604C14.695 26.5951 14.5522 25.8015 14.5133 24.9995H15C15.1326 24.9995 15.2598 24.9468 15.3536 24.8531C15.4473 24.7593 15.5 24.6321 15.5 24.4995C15.5 24.3669 15.4473 24.2397 15.3536 24.146C15.2598 24.0522 15.1326 23.9995 15 23.9995H14.5134C14.5522 23.1976 14.6951 22.4041 14.9383 21.639V21.6389Z" fill="black"/>
<path d="M2.23722 14.6952C2.24347 14.6994 2.24972 14.7034 2.25597 14.7073L4.0001 15.7795V17C4.00054 17.3977 4.15872 17.779 4.43993 18.0602C4.72114 18.3414 5.10241 18.4996 5.5001 18.5C5.80666 18.5 6.06972 18.391 6.34829 18.2756C6.67547 18.1401 7.01379 18 7.5001 18C7.98641 18 8.32472 18.1401 8.65191 18.2756C8.93047 18.391 9.19385 18.5 9.5001 18.5C9.89779 18.4996 10.2791 18.3414 10.5603 18.0602C10.8415 17.779 10.9997 17.3977 11.0001 17V15.7795L12.7442 14.7073C12.7504 14.7034 12.7567 14.6994 12.7629 14.6952C13.5117 14.1875 13.7264 13.0914 13.2317 12.3019C12.2023 10.6584 10.0307 9 7.5001 9C4.96954 9 2.79791 10.6584 1.76835 12.3019C1.27372 13.0914 1.48841 14.1875 2.23722 14.6952ZM10.0001 17C9.99995 17.1326 9.94722 17.2597 9.85349 17.3534C9.75975 17.4471 9.63266 17.4999 9.5001 17.5C9.39241 17.5 9.2266 17.4312 9.0346 17.3517C8.67616 17.2033 8.18535 17 7.5001 17C6.81485 17 6.32404 17.2033 5.9656 17.3517C5.7736 17.4312 5.60779 17.5 5.5001 17.5C5.36754 17.4999 5.24045 17.4471 5.14671 17.3534C5.05297 17.2597 5.00025 17.1326 5.0001 17V16H5.99866H6.00047H6.0026H8.9976H8.99972H9.00154H10.0001V17ZM2.61579 12.8328C3.49904 11.4228 5.35191 10 7.5001 10C9.64829 10 11.5012 11.4228 12.3844 12.8328C12.5923 13.1645 12.5084 13.6522 12.2094 13.8622L10.3587 15H9.8091L10.4473 13.7236C10.5054 13.6052 10.5143 13.4686 10.4721 13.3436C10.4299 13.2186 10.34 13.1153 10.222 13.0563C10.104 12.9973 9.96744 12.9873 9.84212 13.0285C9.71679 13.0697 9.61284 13.1588 9.55291 13.2764L8.6911 15H8.0001V13C8.0001 12.8674 7.94742 12.7402 7.85365 12.6464C7.75988 12.5527 7.63271 12.5 7.5001 12.5C7.36749 12.5 7.24031 12.5527 7.14654 12.6464C7.05278 12.7402 7.0001 12.8674 7.0001 13V15H6.3091L5.44729 13.2764C5.41823 13.2171 5.37774 13.1642 5.32814 13.1207C5.27854 13.0772 5.22081 13.0439 5.15829 13.0228C5.09577 13.0017 5.02969 12.9932 4.96385 12.9977C4.89802 13.0023 4.83374 13.0198 4.77472 13.0493C4.7157 13.0788 4.66311 13.1197 4.61997 13.1697C4.57684 13.2196 4.54401 13.2776 4.52339 13.3403C4.50277 13.403 4.49476 13.4691 4.49983 13.5349C4.5049 13.6007 4.52294 13.6648 4.55291 13.7236L5.1911 15H4.64147L2.79066 13.8625C2.49179 13.6522 2.40791 13.1645 2.61579 12.8328Z" fill="black"/>
</svg>
